<svg width="432" height="432" viewBox="0 0 432 432" fill="none" xmlns="http://www.w3.org/2000/svg">
<path fill-rule="evenodd" clip-rule="evenodd" d="M93.7722 63.2417C89.6817 59.4058 84.2592 57.3119 78.6523 57.4029C73.0453 57.494 67.6937 59.7629 63.7299 63.7295C59.7661 67.6962 57.5009 73.0493 57.4139 78.6564C57.3268 84.2634 59.4246 89.6843 63.2633 93.7722L93.7938 124.303C97.866 128.236 103.32 130.412 108.981 130.363C114.643 130.314 120.058 128.043 124.061 124.04C128.065 120.036 130.335 114.621 130.384 108.96C130.434 103.298 128.257 97.8444 124.324 93.7722L93.7722 63.2417ZM21.5916 194.324C15.8651 194.324 10.3732 196.599 6.32402 200.648C2.27482 204.697 0 210.189 0 215.916C0 221.642 2.27482 227.134 6.32402 231.183C10.3732 235.232 15.8651 237.507 21.5916 237.507H64.7747C70.5012 237.507 75.9931 235.232 80.0423 231.183C84.0915 227.134 86.3663 221.642 86.3663 215.916C86.3663 210.189 84.0915 204.697 80.0423 200.648C75.9931 196.599 70.5012 194.324 64.7747 194.324H21.5916ZM124.303 338.059C126.365 336.067 128.01 333.685 129.141 331.051C130.273 328.416 130.869 325.583 130.894 322.716C130.918 319.849 130.372 317.006 129.286 314.353C128.201 311.699 126.598 309.288 124.57 307.261C122.543 305.234 120.132 303.631 117.479 302.545C114.825 301.459 111.982 300.913 109.115 300.938C106.248 300.963 103.415 301.558 100.781 302.69C98.1465 303.822 95.7639 305.467 93.7722 307.529L63.2417 338.059C61.1795 340.051 59.5346 342.433 58.403 345.068C57.2714 347.702 56.6758 350.535 56.6509 353.402C56.626 356.269 57.1723 359.112 58.2579 361.766C59.3436 364.419 60.9468 366.83 62.9741 368.857C65.0014 370.885 67.4121 372.488 70.0656 373.573C72.7192 374.659 75.5623 375.205 78.4292 375.181C81.2962 375.156 84.1294 374.56 86.7637 373.428C89.3979 372.297 91.7804 370.652 93.7722 368.59L124.303 338.059Z" fill="white"/>
<path d="M374.62 78.5852C374.669 84.2465 372.493 89.7006 368.559 93.7728L338.029 124.303C333.957 128.236 328.503 130.413 322.841 130.363C317.18 130.314 311.765 128.043 307.762 124.04C303.758 120.037 301.488 114.622 301.438 108.96C301.389 103.299 303.565 97.845 307.499 93.7728L338.029 63.2423C342.101 59.3092 347.555 57.1329 353.217 57.1821C358.878 57.2313 364.293 59.5021 368.296 63.5053C372.3 67.5086 374.57 72.924 374.62 78.5852Z" fill="white"/>
<path d="M351.759 200.649C355.808 196.6 361.3 194.325 367.026 194.325H410.21C415.936 194.325 421.428 196.6 425.477 200.649C429.526 204.698 431.801 210.19 431.801 215.916C431.801 221.643 429.526 227.135 425.477 231.184C421.428 235.233 415.936 237.508 410.21 237.508H367.026C361.3 237.508 355.808 235.233 351.759 231.184C347.71 227.135 345.435 221.643 345.435 215.916C345.435 210.19 347.71 204.698 351.759 200.649Z" fill="white"/>
<path d="M322.841 301.469C328.503 301.42 333.957 303.596 338.029 307.529L368.559 338.06C372.493 342.132 374.669 347.586 374.62 353.247C374.57 358.909 372.3 364.324 368.296 368.327C364.293 372.331 358.878 374.601 353.217 374.65C347.555 374.7 342.101 372.523 338.029 368.59L307.499 338.06C303.565 333.988 301.389 328.534 301.438 322.872C301.488 317.211 303.758 311.796 307.762 307.792C311.765 303.789 317.18 301.518 322.841 301.469Z" fill="white"/>
<path fill-rule="evenodd" clip-rule="evenodd" d="M231.182 80.0423C227.132 84.0915 221.641 86.3663 215.914 86.3663V0C221.641 0 227.132 2.27482 231.182 6.32402C235.231 10.3732 237.506 15.8651 237.506 21.5916V64.7747C237.506 70.5012 235.231 75.9931 231.182 80.0423Z" fill="white"/>
<path fill-rule="evenodd" clip-rule="evenodd" d="M292.252 139.578C312.498 159.824 323.872 187.284 323.872 215.916C323.872 244.548 312.498 272.007 292.252 292.253C272.006 312.499 244.546 323.874 215.914 323.874V107.958C244.546 107.958 272.006 119.332 292.252 139.578Z" fill="white"/>
<path fill-rule="evenodd" clip-rule="evenodd" d="M215.914 431.831C221.641 431.831 227.132 429.557 231.182 425.507C235.231 421.458 237.506 415.966 237.506 410.24V367.057C237.506 361.33 235.231 355.838 231.182 351.789C227.132 347.74 221.641 345.465 215.914 345.465V431.831Z" fill="white"/>
<path fill-rule="evenodd" clip-rule="evenodd" d="M200.647 80.0423C196.598 75.9931 194.323 70.5012 194.323 64.7747V21.5916C194.323 15.8651 196.598 10.3732 200.647 6.32402C204.697 2.27482 210.188 0 215.915 0V86.3663C210.188 86.3663 204.697 84.0915 200.647 80.0423Z" fill="white"/>
<path fill-rule="evenodd" clip-rule="evenodd" d="M139.577 292.253C119.331 272.007 107.957 244.548 107.957 215.916C107.957 187.284 119.331 159.824 139.577 139.578C159.823 119.332 187.283 107.958 215.915 107.958V323.874C187.283 323.874 159.823 312.499 139.577 292.253Z" fill="white"/>
<path fill-rule="evenodd" clip-rule="evenodd" d="M200.647 425.507C196.598 421.458 194.323 415.966 194.323 410.24V367.057C194.323 361.33 196.598 355.838 200.647 351.789C204.697 347.74 210.188 345.465 215.915 345.465V431.831C210.188 431.831 204.697 429.557 200.647 425.507Z" fill="white"/>
</svg>
